<svg width="468" height="468" viewBox="0 0 468 468" fill="none" xmlns="http://www.w3.org/2000/svg">
<path d="M169.114 183.952C162.531 152.984 199.423 131.684 222.951 152.869V152.869C233.473 162.343 248.899 163.965 261.161 156.885V156.885C288.58 141.055 320.237 169.559 307.359 198.482V198.482C301.6 211.417 304.825 226.589 315.347 236.063V236.063C338.875 257.248 321.549 296.164 290.062 292.854V292.854C275.981 291.374 262.548 299.13 256.789 312.065V312.065C243.912 340.988 201.546 336.535 194.964 305.566V305.566C192.02 291.717 180.493 281.338 166.412 279.858V279.858C134.925 276.549 126.068 234.881 153.487 219.051V219.051C165.749 211.971 172.058 197.801 169.114 183.952V183.952Z" fill="#E53166"/>
</svg>
